<mxfile host="65bd71144e" pages="2">
    <diagram id="C5RBs43oDa-KdzZeNtuy" name="Page-1">
        <mxGraphModel dx="976" dy="216" grid="1" gridSize="10" guides="1" tooltips="1" connect="1" arrows="1" fold="1" page="0" pageScale="1" pageWidth="827" pageHeight="1169" math="0" shadow="0">
            <root>
                <mxCell id="WIyWlLk6GJQsqaUBKTNV-0"/>
                <mxCell id="WIyWlLk6GJQsqaUBKTNV-1" parent="WIyWlLk6GJQsqaUBKTNV-0"/>
                <mxCell id="rzjPEYDJuFR2NExdbGWI-5" style="edgeStyle=orthogonalEdgeStyle;rounded=0;orthogonalLoop=1;jettySize=auto;html=1;exitX=0.5;exitY=1;exitDx=0;exitDy=0;" parent="WIyWlLk6GJQsqaUBKTNV-1" source="rzjPEYDJuFR2NExdbGWI-0" target="Ei6kTu80rBQQXqiquJnu-1" edge="1">
                    <mxGeometry relative="1" as="geometry"/>
                </mxCell>
                <mxCell id="rzjPEYDJuFR2NExdbGWI-0" value="enter name&amp;nbsp;" style="rounded=0;whiteSpace=wrap;html=1;fillColor=#B266FF;" parent="WIyWlLk6GJQsqaUBKTNV-1" vertex="1">
                    <mxGeometry x="172.5" y="30" width="80" height="40" as="geometry"/>
                </mxCell>
                <mxCell id="rzjPEYDJuFR2NExdbGWI-10" style="edgeStyle=orthogonalEdgeStyle;rounded=0;orthogonalLoop=1;jettySize=auto;html=1;exitX=1;exitY=0.5;exitDx=0;exitDy=0;entryX=0;entryY=0.5;entryDx=0;entryDy=0;" parent="WIyWlLk6GJQsqaUBKTNV-1" source="Ei6kTu80rBQQXqiquJnu-1" target="rzjPEYDJuFR2NExdbGWI-9" edge="1">
                    <mxGeometry relative="1" as="geometry"/>
                </mxCell>
                <mxCell id="J7gUJ2KMB6wd3c9WeZWM-2" style="edgeStyle=orthogonalEdgeStyle;rounded=0;orthogonalLoop=1;jettySize=auto;html=1;exitX=0.5;exitY=1;exitDx=0;exitDy=0;entryX=0.5;entryY=0;entryDx=0;entryDy=0;" parent="WIyWlLk6GJQsqaUBKTNV-1" source="Ei6kTu80rBQQXqiquJnu-1" target="rzjPEYDJuFR2NExdbGWI-8" edge="1">
                    <mxGeometry relative="1" as="geometry">
                        <Array as="points">
                            <mxPoint x="213" y="270"/>
                        </Array>
                    </mxGeometry>
                </mxCell>
                <mxCell id="Ei6kTu80rBQQXqiquJnu-1" value="&lt;br&gt;&lt;font style=&quot;&quot;&gt;&lt;span style=&quot;color: rgb(0, 0, 0); font-family: Helvetica; font-style: normal; font-variant-ligatures: normal; font-variant-caps: normal; font-weight: 400; letter-spacing: normal; orphans: 2; text-align: center; text-indent: 0px; text-transform: none; widows: 2; word-spacing: 0px; -webkit-text-stroke-width: 0px; background-color: rgb(251, 251, 251); text-decoration-thickness: initial; text-decoration-style: initial; text-decoration-color: initial; float: none; display: inline !important;&quot;&gt;&lt;font style=&quot;font-size: 12px;&quot;&gt;Instructions - do you accept the challenge?&lt;/font&gt;&lt;/span&gt;&lt;br&gt;&lt;/font&gt;" style="rhombus;whiteSpace=wrap;html=1;fillColor=#d5e8d4;strokeColor=#82b366;" parent="WIyWlLk6GJQsqaUBKTNV-1" vertex="1">
                    <mxGeometry x="100" y="130" width="225" height="110" as="geometry"/>
                </mxCell>
                <mxCell id="rzjPEYDJuFR2NExdbGWI-4" style="edgeStyle=orthogonalEdgeStyle;rounded=0;orthogonalLoop=1;jettySize=auto;html=1;exitX=1;exitY=0.5;exitDx=0;exitDy=0;entryX=0;entryY=0.5;entryDx=0;entryDy=0;" parent="WIyWlLk6GJQsqaUBKTNV-1" source="rzjPEYDJuFR2NExdbGWI-1" target="rzjPEYDJuFR2NExdbGWI-0" edge="1">
                    <mxGeometry relative="1" as="geometry"/>
                </mxCell>
                <mxCell id="rzjPEYDJuFR2NExdbGWI-1" value="First page:&amp;nbsp; Hi my name is harry, what is your name?&amp;nbsp;" style="rounded=0;whiteSpace=wrap;html=1;fillColor=#B266FF;strokeColor=#9673a6;" parent="WIyWlLk6GJQsqaUBKTNV-1" vertex="1">
                    <mxGeometry x="-50" y="20" width="120" height="60" as="geometry"/>
                </mxCell>
                <mxCell id="J7gUJ2KMB6wd3c9WeZWM-17" style="edgeStyle=orthogonalEdgeStyle;rounded=0;orthogonalLoop=1;jettySize=auto;html=1;entryX=0.5;entryY=0;entryDx=0;entryDy=0;" parent="WIyWlLk6GJQsqaUBKTNV-1" source="rzjPEYDJuFR2NExdbGWI-8" target="J7gUJ2KMB6wd3c9WeZWM-5" edge="1">
                    <mxGeometry relative="1" as="geometry"/>
                </mxCell>
                <mxCell id="rzjPEYDJuFR2NExdbGWI-8" value="yes, go to maze" style="ellipse;whiteSpace=wrap;html=1;fontStyle=0;fillColor=#e1d5e7;strokeColor=#9673a6;" parent="WIyWlLk6GJQsqaUBKTNV-1" vertex="1">
                    <mxGeometry x="156.25" y="280" width="112.5" height="80" as="geometry"/>
                </mxCell>
                <mxCell id="rzjPEYDJuFR2NExdbGWI-14" style="edgeStyle=orthogonalEdgeStyle;rounded=0;orthogonalLoop=1;jettySize=auto;html=1;exitX=1;exitY=0.5;exitDx=0;exitDy=0;entryX=0;entryY=0.5;entryDx=0;entryDy=0;" parent="WIyWlLk6GJQsqaUBKTNV-1" source="rzjPEYDJuFR2NExdbGWI-9" target="rzjPEYDJuFR2NExdbGWI-11" edge="1">
                    <mxGeometry relative="1" as="geometry"/>
                </mxCell>
                <mxCell id="rzjPEYDJuFR2NExdbGWI-9" value="No" style="ellipse;whiteSpace=wrap;html=1;fillColor=#fff2cc;strokeColor=#d6b656;" parent="WIyWlLk6GJQsqaUBKTNV-1" vertex="1">
                    <mxGeometry x="370" y="170" width="68" height="30" as="geometry"/>
                </mxCell>
                <mxCell id="rzjPEYDJuFR2NExdbGWI-11" value="terminate game&amp;nbsp;" style="ellipse;whiteSpace=wrap;html=1;fillColor=#fff2cc;strokeColor=#d6b656;" parent="WIyWlLk6GJQsqaUBKTNV-1" vertex="1">
                    <mxGeometry x="470" y="167.5" width="70" height="35" as="geometry"/>
                </mxCell>
                <mxCell id="J7gUJ2KMB6wd3c9WeZWM-8" style="edgeStyle=orthogonalEdgeStyle;rounded=0;orthogonalLoop=1;jettySize=auto;html=1;entryX=0;entryY=0.5;entryDx=0;entryDy=0;" parent="WIyWlLk6GJQsqaUBKTNV-1" source="J7gUJ2KMB6wd3c9WeZWM-5" target="J7gUJ2KMB6wd3c9WeZWM-7" edge="1">
                    <mxGeometry relative="1" as="geometry"/>
                </mxCell>
                <mxCell id="J7gUJ2KMB6wd3c9WeZWM-14" style="edgeStyle=orthogonalEdgeStyle;rounded=0;orthogonalLoop=1;jettySize=auto;html=1;exitX=0.5;exitY=1;exitDx=0;exitDy=0;entryX=0.5;entryY=0;entryDx=0;entryDy=0;" parent="WIyWlLk6GJQsqaUBKTNV-1" source="J7gUJ2KMB6wd3c9WeZWM-5" target="J7gUJ2KMB6wd3c9WeZWM-6" edge="1">
                    <mxGeometry relative="1" as="geometry"/>
                </mxCell>
                <mxCell id="J7gUJ2KMB6wd3c9WeZWM-5" value="Room 1: Start of Maze&amp;nbsp;&lt;br&gt;Can find way out of maze?" style="rhombus;whiteSpace=wrap;html=1;fillColor=#d5e8d4;strokeColor=#82b366;" parent="WIyWlLk6GJQsqaUBKTNV-1" vertex="1">
                    <mxGeometry x="107.5" y="400" width="212.5" height="110" as="geometry"/>
                </mxCell>
                <mxCell id="W-DsjdOM5TvN1YA2UjJ_-2" style="edgeStyle=orthogonalEdgeStyle;rounded=0;orthogonalLoop=1;jettySize=auto;html=1;exitX=0.5;exitY=1;exitDx=0;exitDy=0;entryX=0.5;entryY=0;entryDx=0;entryDy=0;" parent="WIyWlLk6GJQsqaUBKTNV-1" source="J7gUJ2KMB6wd3c9WeZWM-6" target="W-DsjdOM5TvN1YA2UjJ_-1" edge="1">
                    <mxGeometry relative="1" as="geometry"/>
                </mxCell>
                <mxCell id="J7gUJ2KMB6wd3c9WeZWM-6" value="yes, go to next room" style="ellipse;whiteSpace=wrap;html=1;fillColor=#e1d5e7;strokeColor=#9673a6;" parent="WIyWlLk6GJQsqaUBKTNV-1" vertex="1">
                    <mxGeometry x="156.25" y="545" width="112.5" height="80" as="geometry"/>
                </mxCell>
                <mxCell id="J7gUJ2KMB6wd3c9WeZWM-7" value="No (Hit object)" style="ellipse;whiteSpace=wrap;html=1;fillColor=#fff2cc;strokeColor=#d6b656;" parent="WIyWlLk6GJQsqaUBKTNV-1" vertex="1">
                    <mxGeometry x="370" y="415" width="112.5" height="80" as="geometry"/>
                </mxCell>
                <mxCell id="J7gUJ2KMB6wd3c9WeZWM-16" value="Start again" style="text;html=1;strokeColor=none;fillColor=none;align=center;verticalAlign=middle;whiteSpace=wrap;rounded=0;" parent="WIyWlLk6GJQsqaUBKTNV-1" vertex="1">
                    <mxGeometry x="359" y="290" width="90" height="30" as="geometry"/>
                </mxCell>
                <mxCell id="rzjPEYDJuFR2NExdbGWI-16" style="edgeStyle=orthogonalEdgeStyle;rounded=0;orthogonalLoop=1;jettySize=auto;html=1;exitX=0.5;exitY=0;exitDx=0;exitDy=0;entryX=1;entryY=0.5;entryDx=0;entryDy=0;" parent="WIyWlLk6GJQsqaUBKTNV-1" source="J7gUJ2KMB6wd3c9WeZWM-7" target="rzjPEYDJuFR2NExdbGWI-8" edge="1">
                    <mxGeometry relative="1" as="geometry"/>
                </mxCell>
                <mxCell id="W-DsjdOM5TvN1YA2UjJ_-9" style="edgeStyle=orthogonalEdgeStyle;rounded=0;orthogonalLoop=1;jettySize=auto;html=1;exitX=0.5;exitY=1;exitDx=0;exitDy=0;" parent="WIyWlLk6GJQsqaUBKTNV-1" source="W-DsjdOM5TvN1YA2UjJ_-1" target="W-DsjdOM5TvN1YA2UjJ_-6" edge="1">
                    <mxGeometry relative="1" as="geometry"/>
                </mxCell>
                <mxCell id="W-DsjdOM5TvN1YA2UjJ_-1" value="Room 2, answering Snapes questions to escape the dungeon" style="ellipse;whiteSpace=wrap;html=1;fillColor=#e1d5e7;strokeColor=#9673a6;" parent="WIyWlLk6GJQsqaUBKTNV-1" vertex="1">
                    <mxGeometry x="141.88" y="660" width="143.75" height="90" as="geometry"/>
                </mxCell>
                <mxCell id="W-DsjdOM5TvN1YA2UjJ_-12" style="edgeStyle=orthogonalEdgeStyle;rounded=0;orthogonalLoop=1;jettySize=auto;html=1;exitX=1;exitY=0.5;exitDx=0;exitDy=0;entryX=0;entryY=0.5;entryDx=0;entryDy=0;" parent="WIyWlLk6GJQsqaUBKTNV-1" source="W-DsjdOM5TvN1YA2UjJ_-6" target="W-DsjdOM5TvN1YA2UjJ_-11" edge="1">
                    <mxGeometry relative="1" as="geometry"/>
                </mxCell>
                <mxCell id="W-DsjdOM5TvN1YA2UjJ_-26" value="Text" style="edgeLabel;html=1;align=center;verticalAlign=middle;resizable=0;points=[];" parent="W-DsjdOM5TvN1YA2UjJ_-12" connectable="0" vertex="1">
                    <mxGeometry x="0.5289" y="3" relative="1" as="geometry">
                        <mxPoint x="-1" y="1" as="offset"/>
                    </mxGeometry>
                </mxCell>
                <mxCell id="W-DsjdOM5TvN1YA2UjJ_-17" style="edgeStyle=orthogonalEdgeStyle;rounded=0;orthogonalLoop=1;jettySize=auto;html=1;exitX=0.5;exitY=1;exitDx=0;exitDy=0;entryX=0.5;entryY=0;entryDx=0;entryDy=0;" parent="WIyWlLk6GJQsqaUBKTNV-1" source="W-DsjdOM5TvN1YA2UjJ_-6" target="W-DsjdOM5TvN1YA2UjJ_-10" edge="1">
                    <mxGeometry relative="1" as="geometry"/>
                </mxCell>
                <mxCell id="W-DsjdOM5TvN1YA2UjJ_-6" value="&lt;font style=&quot;font-size: 10px;&quot;&gt;Guess the word: almost like hangman ?&lt;/font&gt;" style="rhombus;whiteSpace=wrap;html=1;fillColor=#d5e8d4;strokeColor=#82b366;" parent="WIyWlLk6GJQsqaUBKTNV-1" vertex="1">
                    <mxGeometry x="115.75999999999999" y="800" width="196" height="75" as="geometry"/>
                </mxCell>
                <mxCell id="W-DsjdOM5TvN1YA2UjJ_-19" style="edgeStyle=orthogonalEdgeStyle;rounded=0;orthogonalLoop=1;jettySize=auto;html=1;exitX=0.5;exitY=1;exitDx=0;exitDy=0;" parent="WIyWlLk6GJQsqaUBKTNV-1" source="W-DsjdOM5TvN1YA2UjJ_-10" target="W-DsjdOM5TvN1YA2UjJ_-18" edge="1">
                    <mxGeometry relative="1" as="geometry"/>
                </mxCell>
                <mxCell id="W-DsjdOM5TvN1YA2UjJ_-10" value="Correct... next question&amp;nbsp;" style="ellipse;whiteSpace=wrap;html=1;fillColor=#e1d5e7;strokeColor=#9673a6;" parent="WIyWlLk6GJQsqaUBKTNV-1" vertex="1">
                    <mxGeometry x="165.63" y="920" width="96.25" height="50" as="geometry"/>
                </mxCell>
                <mxCell id="J7gUJ2KMB6wd3c9WeZWM-18" style="edgeStyle=orthogonalEdgeStyle;rounded=0;orthogonalLoop=1;jettySize=auto;html=1;" parent="WIyWlLk6GJQsqaUBKTNV-1" edge="1">
                    <mxGeometry relative="1" as="geometry">
                        <mxPoint x="448.37" y="817.5" as="sourcePoint"/>
                        <mxPoint x="290" y="705" as="targetPoint"/>
                        <Array as="points">
                            <mxPoint x="448" y="705"/>
                        </Array>
                    </mxGeometry>
                </mxCell>
                <mxCell id="W-DsjdOM5TvN1YA2UjJ_-11" value="Incorrect&amp;nbsp;" style="ellipse;whiteSpace=wrap;html=1;fillColor=#fff2cc;strokeColor=#d6b656;" parent="WIyWlLk6GJQsqaUBKTNV-1" vertex="1">
                    <mxGeometry x="414" y="817.5" width="80" height="40" as="geometry"/>
                </mxCell>
                <mxCell id="W-DsjdOM5TvN1YA2UjJ_-16" value="Start again" style="text;html=1;strokeColor=none;fillColor=none;align=center;verticalAlign=middle;whiteSpace=wrap;rounded=0;" parent="WIyWlLk6GJQsqaUBKTNV-1" vertex="1">
                    <mxGeometry x="381.25" y="680" width="90" height="30" as="geometry"/>
                </mxCell>
                <mxCell id="W-DsjdOM5TvN1YA2UjJ_-21" style="edgeStyle=orthogonalEdgeStyle;rounded=0;orthogonalLoop=1;jettySize=auto;html=1;exitX=1;exitY=0.5;exitDx=0;exitDy=0;entryX=0;entryY=0.5;entryDx=0;entryDy=0;" parent="WIyWlLk6GJQsqaUBKTNV-1" source="W-DsjdOM5TvN1YA2UjJ_-18" target="W-DsjdOM5TvN1YA2UjJ_-20" edge="1">
                    <mxGeometry relative="1" as="geometry"/>
                </mxCell>
                <mxCell id="pO1aUvgZezmF9V1otoq--1" style="edgeStyle=orthogonalEdgeStyle;rounded=0;orthogonalLoop=1;jettySize=auto;html=1;entryX=0.5;entryY=0;entryDx=0;entryDy=0;" parent="WIyWlLk6GJQsqaUBKTNV-1" source="W-DsjdOM5TvN1YA2UjJ_-18" target="pO1aUvgZezmF9V1otoq--0" edge="1">
                    <mxGeometry relative="1" as="geometry"/>
                </mxCell>
                <mxCell id="W-DsjdOM5TvN1YA2UjJ_-18" value="Math question for a potion&amp;nbsp;" style="rhombus;whiteSpace=wrap;html=1;fillColor=#d5e8d4;strokeColor=#82b366;" parent="WIyWlLk6GJQsqaUBKTNV-1" vertex="1">
                    <mxGeometry x="115.75999999999999" y="1010" width="196" height="75" as="geometry"/>
                </mxCell>
                <mxCell id="W-DsjdOM5TvN1YA2UjJ_-22" style="edgeStyle=orthogonalEdgeStyle;rounded=0;orthogonalLoop=1;jettySize=auto;html=1;exitX=0.5;exitY=0;exitDx=0;exitDy=0;entryX=1;entryY=0.5;entryDx=0;entryDy=0;" parent="WIyWlLk6GJQsqaUBKTNV-1" source="W-DsjdOM5TvN1YA2UjJ_-20" target="W-DsjdOM5TvN1YA2UjJ_-10" edge="1">
                    <mxGeometry relative="1" as="geometry"/>
                </mxCell>
                <mxCell id="W-DsjdOM5TvN1YA2UjJ_-20" value="Incorrect&amp;nbsp;" style="ellipse;whiteSpace=wrap;html=1;fillColor=#fff2cc;strokeColor=#d6b656;" parent="WIyWlLk6GJQsqaUBKTNV-1" vertex="1">
                    <mxGeometry x="374" y="1027.5" width="80" height="40" as="geometry"/>
                </mxCell>
                <mxCell id="W-DsjdOM5TvN1YA2UjJ_-23" value="Start again" style="text;html=1;strokeColor=none;fillColor=none;align=center;verticalAlign=middle;whiteSpace=wrap;rounded=0;" parent="WIyWlLk6GJQsqaUBKTNV-1" vertex="1">
                    <mxGeometry x="348" y="920" width="90" height="30" as="geometry"/>
                </mxCell>
                <mxCell id="pO1aUvgZezmF9V1otoq--7" style="edgeStyle=orthogonalEdgeStyle;rounded=0;orthogonalLoop=1;jettySize=auto;html=1;exitX=0.5;exitY=1;exitDx=0;exitDy=0;entryX=0.5;entryY=0;entryDx=0;entryDy=0;" parent="WIyWlLk6GJQsqaUBKTNV-1" source="pO1aUvgZezmF9V1otoq--0" target="pO1aUvgZezmF9V1otoq--2" edge="1">
                    <mxGeometry relative="1" as="geometry"/>
                </mxCell>
                <mxCell id="pO1aUvgZezmF9V1otoq--0" value="Correct... next room" style="ellipse;whiteSpace=wrap;html=1;fillColor=#e1d5e7;strokeColor=#9673a6;" parent="WIyWlLk6GJQsqaUBKTNV-1" vertex="1">
                    <mxGeometry x="165.63" y="1120" width="96.25" height="50" as="geometry"/>
                </mxCell>
                <mxCell id="pO1aUvgZezmF9V1otoq--8" style="edgeStyle=orthogonalEdgeStyle;rounded=0;orthogonalLoop=1;jettySize=auto;html=1;entryX=0.5;entryY=0;entryDx=0;entryDy=0;" parent="WIyWlLk6GJQsqaUBKTNV-1" source="pO1aUvgZezmF9V1otoq--2" target="pO1aUvgZezmF9V1otoq--3" edge="1">
                    <mxGeometry relative="1" as="geometry"/>
                </mxCell>
                <mxCell id="pO1aUvgZezmF9V1otoq--2" value="Room 3 dodge the dementor ( time limit )" style="ellipse;whiteSpace=wrap;html=1;fillColor=#e1d5e7;strokeColor=#9673a6;" parent="WIyWlLk6GJQsqaUBKTNV-1" vertex="1">
                    <mxGeometry x="140.62" y="1200" width="143.75" height="90" as="geometry"/>
                </mxCell>
                <mxCell id="pO1aUvgZezmF9V1otoq--9" style="edgeStyle=orthogonalEdgeStyle;rounded=0;orthogonalLoop=1;jettySize=auto;html=1;entryX=0.5;entryY=0;entryDx=0;entryDy=0;" parent="WIyWlLk6GJQsqaUBKTNV-1" source="pO1aUvgZezmF9V1otoq--3" target="pO1aUvgZezmF9V1otoq--5" edge="1">
                    <mxGeometry relative="1" as="geometry"/>
                </mxCell>
                <mxCell id="pO1aUvgZezmF9V1otoq--10" style="edgeStyle=orthogonalEdgeStyle;rounded=0;orthogonalLoop=1;jettySize=auto;html=1;exitX=1;exitY=0.5;exitDx=0;exitDy=0;entryX=0;entryY=0.5;entryDx=0;entryDy=0;" parent="WIyWlLk6GJQsqaUBKTNV-1" source="pO1aUvgZezmF9V1otoq--3" target="pO1aUvgZezmF9V1otoq--6" edge="1">
                    <mxGeometry relative="1" as="geometry"/>
                </mxCell>
                <mxCell id="pO1aUvgZezmF9V1otoq--3" value="&lt;font style=&quot;font-size: 10px;&quot;&gt;Hits dementor?&lt;/font&gt;" style="rhombus;whiteSpace=wrap;html=1;fillColor=#d5e8d4;strokeColor=#82b366;" parent="WIyWlLk6GJQsqaUBKTNV-1" vertex="1">
                    <mxGeometry x="114.49999999999999" y="1320" width="196" height="75" as="geometry"/>
                </mxCell>
                <mxCell id="3YFqVoqOJa0yrGZR-gxU-4" style="edgeStyle=orthogonalEdgeStyle;rounded=0;orthogonalLoop=1;jettySize=auto;html=1;exitX=0.5;exitY=1;exitDx=0;exitDy=0;entryX=0.5;entryY=0;entryDx=0;entryDy=0;" parent="WIyWlLk6GJQsqaUBKTNV-1" source="pO1aUvgZezmF9V1otoq--5" target="3YFqVoqOJa0yrGZR-gxU-2" edge="1">
                    <mxGeometry relative="1" as="geometry"/>
                </mxCell>
                <mxCell id="pO1aUvgZezmF9V1otoq--5" value="No" style="ellipse;whiteSpace=wrap;html=1;fillColor=#e1d5e7;strokeColor=#9673a6;" parent="WIyWlLk6GJQsqaUBKTNV-1" vertex="1">
                    <mxGeometry x="172.5" y="1430" width="80" height="40" as="geometry"/>
                </mxCell>
                <mxCell id="pO1aUvgZezmF9V1otoq--11" style="edgeStyle=orthogonalEdgeStyle;rounded=0;orthogonalLoop=1;jettySize=auto;html=1;exitX=1;exitY=0.5;exitDx=0;exitDy=0;entryX=0.5;entryY=1;entryDx=0;entryDy=0;" parent="WIyWlLk6GJQsqaUBKTNV-1" source="pO1aUvgZezmF9V1otoq--6" target="rzjPEYDJuFR2NExdbGWI-11" edge="1">
                    <mxGeometry relative="1" as="geometry"/>
                </mxCell>
                <mxCell id="pO1aUvgZezmF9V1otoq--6" value="Yes" style="ellipse;whiteSpace=wrap;html=1;fillColor=#fff2cc;strokeColor=#d6b656;" parent="WIyWlLk6GJQsqaUBKTNV-1" vertex="1">
                    <mxGeometry x="358" y="1337.5" width="80" height="40" as="geometry"/>
                </mxCell>
                <mxCell id="3YFqVoqOJa0yrGZR-gxU-14" style="edgeStyle=orthogonalEdgeStyle;rounded=0;orthogonalLoop=1;jettySize=auto;html=1;exitX=0.5;exitY=1;exitDx=0;exitDy=0;entryX=0.5;entryY=0;entryDx=0;entryDy=0;" parent="WIyWlLk6GJQsqaUBKTNV-1" source="3YFqVoqOJa0yrGZR-gxU-2" target="3YFqVoqOJa0yrGZR-gxU-7" edge="1">
                    <mxGeometry relative="1" as="geometry"/>
                </mxCell>
                <mxCell id="3YFqVoqOJa0yrGZR-gxU-2" value="END GAME- YOU WIN" style="rounded=0;whiteSpace=wrap;html=1;fillColor=#B266FF;" parent="WIyWlLk6GJQsqaUBKTNV-1" vertex="1">
                    <mxGeometry x="136.25" y="1520" width="152.49" height="60" as="geometry"/>
                </mxCell>
                <mxCell id="3YFqVoqOJa0yrGZR-gxU-9" style="edgeStyle=orthogonalEdgeStyle;rounded=0;orthogonalLoop=1;jettySize=auto;html=1;exitX=0;exitY=0.5;exitDx=0;exitDy=0;entryX=1;entryY=0.5;entryDx=0;entryDy=0;" parent="WIyWlLk6GJQsqaUBKTNV-1" source="3YFqVoqOJa0yrGZR-gxU-7" target="3YFqVoqOJa0yrGZR-gxU-8" edge="1">
                    <mxGeometry relative="1" as="geometry"/>
                </mxCell>
                <mxCell id="3YFqVoqOJa0yrGZR-gxU-13" style="edgeStyle=orthogonalEdgeStyle;rounded=0;orthogonalLoop=1;jettySize=auto;html=1;exitX=0.5;exitY=1;exitDx=0;exitDy=0;entryX=0.5;entryY=0;entryDx=0;entryDy=0;" parent="WIyWlLk6GJQsqaUBKTNV-1" source="3YFqVoqOJa0yrGZR-gxU-7" target="3YFqVoqOJa0yrGZR-gxU-12" edge="1">
                    <mxGeometry relative="1" as="geometry"/>
                </mxCell>
                <mxCell id="3YFqVoqOJa0yrGZR-gxU-7" value="&lt;span style=&quot;font-size: 10px;&quot;&gt;Do you want to do the bonus round&lt;/span&gt;" style="rhombus;whiteSpace=wrap;html=1;fillColor=#d5e8d4;strokeColor=#82b366;" parent="WIyWlLk6GJQsqaUBKTNV-1" vertex="1">
                    <mxGeometry x="114.48999999999998" y="1620" width="196" height="75" as="geometry"/>
                </mxCell>
                <mxCell id="3YFqVoqOJa0yrGZR-gxU-11" style="edgeStyle=orthogonalEdgeStyle;rounded=0;orthogonalLoop=1;jettySize=auto;html=1;exitX=0.5;exitY=0;exitDx=0;exitDy=0;entryX=0.5;entryY=1;entryDx=0;entryDy=0;" parent="WIyWlLk6GJQsqaUBKTNV-1" source="3YFqVoqOJa0yrGZR-gxU-8" target="rzjPEYDJuFR2NExdbGWI-1" edge="1">
                    <mxGeometry relative="1" as="geometry"/>
                </mxCell>
                <mxCell id="3YFqVoqOJa0yrGZR-gxU-8" value="No" style="ellipse;whiteSpace=wrap;html=1;fillColor=#fff2cc;strokeColor=#d6b656;" parent="WIyWlLk6GJQsqaUBKTNV-1" vertex="1">
                    <mxGeometry x="-30" y="1637.5" width="80" height="40" as="geometry"/>
                </mxCell>
                <mxCell id="3YFqVoqOJa0yrGZR-gxU-16" style="edgeStyle=orthogonalEdgeStyle;rounded=0;orthogonalLoop=1;jettySize=auto;html=1;exitX=0.5;exitY=1;exitDx=0;exitDy=0;" parent="WIyWlLk6GJQsqaUBKTNV-1" source="3YFqVoqOJa0yrGZR-gxU-12" target="3YFqVoqOJa0yrGZR-gxU-15" edge="1">
                    <mxGeometry relative="1" as="geometry"/>
                </mxCell>
                <mxCell id="3YFqVoqOJa0yrGZR-gxU-12" value="Yes&amp;nbsp;" style="ellipse;whiteSpace=wrap;html=1;fillColor=#e1d5e7;strokeColor=#9673a6;" parent="WIyWlLk6GJQsqaUBKTNV-1" vertex="1">
                    <mxGeometry x="172.5" y="1760" width="80" height="40" as="geometry"/>
                </mxCell>
                <mxCell id="3YFqVoqOJa0yrGZR-gxU-15" value="Bonus round?" style="rounded=0;whiteSpace=wrap;html=1;fillColor=#e1d5e7;strokeColor=#9673a6;" parent="WIyWlLk6GJQsqaUBKTNV-1" vertex="1">
                    <mxGeometry x="152.49" y="1860" width="120" height="60" as="geometry"/>
                </mxCell>
            </root>
        </mxGraphModel>
    </diagram>
    <diagram id="XlbaDZYQ_uQyCq35UNUm" name="Page-2">
        <mxGraphModel dx="576" dy="216" grid="1" gridSize="10" guides="1" tooltips="1" connect="1" arrows="1" fold="1" page="1" pageScale="1" pageWidth="827" pageHeight="1169" math="0" shadow="0">
            <root>
                <mxCell id="0"/>
                <mxCell id="1" parent="0"/>
            </root>
        </mxGraphModel>
    </diagram>
</mxfile>